<?xml version='1.0' encoding='iso-8859-1'?>
<svg version="1.1" xmlns="http://www.w3.org/2000/svg" viewBox="0 0 48 48" xmlns:xlink="http://www.w3.org/1999/xlink" enable-background="new 0 0 48 48">
  <g>
    <g>
      <path d="m15,36.5c-1.657,0-3,1.343-3,3s1.343,3 3,3c1.657,0 3-1.343 3-3s-1.343-3-3-3zm1,4h-2v-2h2v2zm1.934-27l.334,2h27.442l-3.71,13c-0.39,1.766-1.343,3-3,3h-23c-1.657,0-3-1.343-3-3l-3-23h-10v2h8.222l2.778,21c0,2.761 2.239,5 5,5h23c2.761,0 4.459-2.162 5-5l4-15h-30.066zm21.066,23c-1.657,0-3,1.343-3,3s1.343,3 3,3 3-1.343 3-3-1.343-3-3-3zm1,4h-2v-2h2v2z"/>
    </g>
  </g>
</svg>
